<svg width="36" height="22" viewBox="0 0 36 22" fill="none" xmlns="http://www.w3.org/2000/svg">
<path d="M15.07 22H1.15C0.77 22 0.49 21.92 0.31 21.76C0.15 21.58 0.0700002 21.3 0.0700002 20.92V1.48C0.0700002 1.1 0.15 0.83 0.31 0.669999C0.49 0.489999 0.77 0.399999 1.15 0.399999H15.07C15.45 0.399999 15.72 0.489999 15.88 0.669999C16.06 0.83 16.15 1.1 16.15 1.48V4.99C16.15 5.37 16.06 5.65 15.88 5.83C15.72 5.99 15.45 6.07 15.07 6.07H6.79V8.38H12.64C13.02 8.38 13.29 8.47 13.45 8.65C13.63 8.81 13.72 9.08 13.72 9.46V12.67C13.72 13.05 13.63 13.33 13.45 13.51C13.29 13.67 13.02 13.75 12.64 13.75H6.79V16.33H15.07C15.45 16.33 15.72 16.42 15.88 16.6C16.06 16.76 16.15 17.03 16.15 17.41V20.92C16.15 21.3 16.06 21.58 15.88 21.76C15.72 21.92 15.45 22 15.07 22ZM20.1789 16.33H27.7089C28.1889 16.33 28.4989 16.24 28.6389 16.06C28.7789 15.88 28.8489 15.67 28.8489 15.43V14.62C28.8489 14.38 28.7789 14.18 28.6389 14.02C28.4989 13.84 28.1889 13.75 27.7089 13.75H22.6089C22.2289 13.75 21.9489 13.67 21.7689 13.51C21.6089 13.33 21.5289 13.05 21.5289 12.67V9.46C21.5289 9.08 21.6089 8.81 21.7689 8.65C21.9489 8.47 22.2289 8.38 22.6089 8.38H25.7589C26.2389 8.38 26.5489 8.29 26.6889 8.11C26.8289 7.93 26.8989 7.72 26.8989 7.48V7.03C26.8989 6.79 26.8289 6.58 26.6889 6.4C26.5489 6.22 26.2389 6.13 25.7589 6.13H20.1789C19.7989 6.13 19.5189 6.05 19.3389 5.89C19.1789 5.71 19.0989 5.43 19.0989 5.05V1.48C19.0989 1.1 19.1789 0.83 19.3389 0.669999C19.5189 0.489999 19.7989 0.399999 20.1789 0.399999H28.5489C30.2089 0.399999 31.4389 0.789999 32.2389 1.57C33.0589 2.33 33.4689 3.37 33.4689 4.69V6.43C33.4689 7.19 33.3389 7.85 33.0789 8.41C32.8189 8.97 32.3589 9.39 31.6989 9.67C33.1189 9.83 34.0989 10.27 34.6389 10.99C35.1989 11.69 35.4789 12.7 35.4789 14.02V17.02C35.4789 18.56 34.9889 19.78 34.0089 20.68C33.0289 21.56 31.5789 22 29.6589 22H20.1789C19.7989 22 19.5189 21.92 19.3389 21.76C19.1789 21.58 19.0989 21.3 19.0989 20.92V17.41C19.0989 17.03 19.1789 16.76 19.3389 16.6C19.5189 16.42 19.7989 16.33 20.1789 16.33Z" fill="#8600C5"/>
</svg>
